M48
; DRILL file KiCad 10.0.5 date 2026-09-12T03:04:23
; FORMAT={-:-/ absolute / metric / decimal}
; #@! TF.CreationDate,2026-09-12T03:04:23+05:30
; #@! TF.GenerationSoftware,Kicad,Pcbnew,10.0.5
; #@! TF.FileFunction,Plated,1,2,PTH
FMAT,2
METRIC
; #@! TA.AperFunction,Plated,PTH,ComponentDrill
T1C1.000
; #@! TA.AperFunction,Plated,PTH,ComponentDrill
T2C1.500
%
G90
G05
T1
X135.785Y-114.575
X135.785Y-117.115
X135.785Y-119.655
X135.785Y-122.195
X179.3Y-75.1
X179.3Y-77.6
X179.3Y-80.1
X180.1Y-92.55
X180.1Y-107.8
X182.64Y-92.55
X182.64Y-107.8
X185.18Y-92.55
X185.18Y-107.8
X187.72Y-92.55
X187.72Y-107.8
X190.26Y-92.55
X190.26Y-107.8
X192.8Y-92.55
X192.8Y-107.8
X193.8Y-75.1
X193.8Y-80.1
X195.34Y-92.55
X195.34Y-107.8
T2
X140.07Y-75.46
X140.07Y-94.86
X146.42Y-72.92
X146.42Y-92.32
X159.435Y-75.405
X159.435Y-94.76
X165.785Y-72.865
X165.785Y-92.22
T2
G00X186.15Y-72.0
M15
G01X187.45Y-72.0
M16
G05
G00X186.15Y-83.2
M15
G01X187.45Y-83.2
M16
G05
M30
