ISO-10303-21;
HEADER;
/* Generated by software containing ST-Developer
 * from STEP Tools, Inc. (www.steptools.com) 
 */

FILE_DESCRIPTION(
/* description */ (''),
/* implementation_level */ '2;1');

FILE_NAME(
/* name */ 'Mini_Pad_encloser.step',
/* time_stamp */ '2026-09-14T16:41:11+05:30',
/* author */ (''),
/* organization */ (''),
/* preprocessor_version */ 'ST-DEVELOPER v20.2',
/* originating_system */ 'Autodesk Translation Framework v15.15.0.0',
/* authorisation */ '');

FILE_SCHEMA (('AUTOMOTIVE_DESIGN { 1 0 10303 214 3 1 1 }'));
ENDSEC;

DATA;
#10=MECHANICAL_DESIGN_GEOMETRIC_PRESENTATION_REPRESENTATION('',(#13),#767);
#11=SHAPE_REPRESENTATION_RELATIONSHIP('SRR','None',#774,#12);
#12=ADVANCED_BREP_SHAPE_REPRESENTATION('',(#14),#766);
#13=STYLED_ITEM('',(#784),#14);
#14=MANIFOLD_SOLID_BREP('Body1',#451);
#15=FACE_BOUND('',#85,.T.);
#16=FACE_BOUND('',#86,.T.);
#17=FACE_BOUND('',#87,.T.);
#18=FACE_BOUND('',#88,.T.);
#19=CIRCLE('',#471,1.5);
#20=CIRCLE('',#472,1.5);
#21=CIRCLE('',#475,1.5);
#22=CIRCLE('',#476,1.5);
#23=CIRCLE('',#479,1.5);
#24=CIRCLE('',#480,1.5);
#25=CIRCLE('',#483,1.5);
#26=CIRCLE('',#484,1.5);
#27=CIRCLE('',#487,10.);
#28=CIRCLE('',#488,10.);
#29=CIRCLE('',#491,10.);
#30=CIRCLE('',#492,10.);
#31=CIRCLE('',#493,10.);
#32=CIRCLE('',#495,10.);
#33=CIRCLE('',#498,10.);
#34=CIRCLE('',#500,10.);
#35=CYLINDRICAL_SURFACE('',#470,1.5);
#36=CYLINDRICAL_SURFACE('',#474,1.5);
#37=CYLINDRICAL_SURFACE('',#478,1.5);
#38=CYLINDRICAL_SURFACE('',#482,1.5);
#39=CYLINDRICAL_SURFACE('',#486,10.);
#40=CYLINDRICAL_SURFACE('',#494,10.);
#41=CYLINDRICAL_SURFACE('',#497,10.);
#42=CYLINDRICAL_SURFACE('',#499,10.);
#43=FACE_OUTER_BOUND('',#69,.T.);
#44=FACE_OUTER_BOUND('',#70,.T.);
#45=FACE_OUTER_BOUND('',#71,.T.);
#46=FACE_OUTER_BOUND('',#72,.T.);
#47=FACE_OUTER_BOUND('',#73,.T.);
#48=FACE_OUTER_BOUND('',#74,.T.);
#49=FACE_OUTER_BOUND('',#75,.T.);
#50=FACE_OUTER_BOUND('',#76,.T.);
#51=FACE_OUTER_BOUND('',#77,.T.);
#52=FACE_OUTER_BOUND('',#78,.T.);
#53=FACE_OUTER_BOUND('',#79,.T.);
#54=FACE_OUTER_BOUND('',#80,.T.);
#55=FACE_OUTER_BOUND('',#81,.T.);
#56=FACE_OUTER_BOUND('',#82,.T.);
#57=FACE_OUTER_BOUND('',#83,.T.);
#58=FACE_OUTER_BOUND('',#84,.T.);
#59=FACE_OUTER_BOUND('',#89,.T.);
#60=FACE_OUTER_BOUND('',#90,.T.);
#61=FACE_OUTER_BOUND('',#91,.T.);
#62=FACE_OUTER_BOUND('',#92,.T.);
#63=FACE_OUTER_BOUND('',#93,.T.);
#64=FACE_OUTER_BOUND('',#94,.T.);
#65=FACE_OUTER_BOUND('',#95,.T.);
#66=FACE_OUTER_BOUND('',#96,.T.);
#67=FACE_OUTER_BOUND('',#97,.T.);
#68=FACE_OUTER_BOUND('',#98,.T.);
#69=EDGE_LOOP('',(#287,#288,#289,#290));
#70=EDGE_LOOP('',(#291,#292,#293,#294,#295,#296,#297,#298));
#71=EDGE_LOOP('',(#299,#300,#301,#302));
#72=EDGE_LOOP('',(#303,#304,#305,#306));
#73=EDGE_LOOP('',(#307,#308,#309,#310,#311,#312,#313,#314));
#74=EDGE_LOOP('',(#315,#316,#317,#318));
#75=EDGE_LOOP('',(#319));
#76=EDGE_LOOP('',(#320,#321,#322,#323));
#77=EDGE_LOOP('',(#324));
#78=EDGE_LOOP('',(#325,#326,#327,#328));
#79=EDGE_LOOP('',(#329));
#80=EDGE_LOOP('',(#330,#331,#332,#333));
#81=EDGE_LOOP('',(#334));
#82=EDGE_LOOP('',(#335,#336,#337,#338));
#83=EDGE_LOOP('',(#339,#340,#341,#342));
#84=EDGE_LOOP('',(#343,#344,#345,#346,#347,#348,#349,#350,#351,#352,#353,
#354,#355,#356,#357,#358));
#85=EDGE_LOOP('',(#359));
#86=EDGE_LOOP('',(#360));
#87=EDGE_LOOP('',(#361));
#88=EDGE_LOOP('',(#362));
#89=EDGE_LOOP('',(#363,#364,#365,#366));
#90=EDGE_LOOP('',(#367,#368,#369,#370));
#91=EDGE_LOOP('',(#371,#372,#373,#374));
#92=EDGE_LOOP('',(#375,#376,#377,#378));
#93=EDGE_LOOP('',(#379,#380,#381,#382));
#94=EDGE_LOOP('',(#383,#384,#385,#386));
#95=EDGE_LOOP('',(#387,#388,#389,#390));
#96=EDGE_LOOP('',(#391,#392,#393,#394));
#97=EDGE_LOOP('',(#395,#396,#397,#398));
#98=EDGE_LOOP('',(#399,#400,#401,#402,#403,#404,#405,#406));
#99=LINE('',#641,#143);
#100=LINE('',#643,#144);
#101=LINE('',#645,#145);
#102=LINE('',#646,#146);
#103=LINE('',#649,#147);
#104=LINE('',#651,#148);
#105=LINE('',#653,#149);
#106=LINE('',#655,#150);
#107=LINE('',#657,#151);
#108=LINE('',#659,#152);
#109=LINE('',#660,#153);
#110=LINE('',#663,#154);
#111=LINE('',#665,#155);
#112=LINE('',#666,#156);
#113=LINE('',#669,#157);
#114=LINE('',#670,#158);
#115=LINE('',#673,#159);
#116=LINE('',#675,#160);
#117=LINE('',#677,#161);
#118=LINE('',#679,#162);
#119=LINE('',#681,#163);
#120=LINE('',#682,#164);
#121=LINE('',#687,#165);
#122=LINE('',#694,#166);
#123=LINE('',#701,#167);
#124=LINE('',#708,#168);
#125=LINE('',#716,#169);
#126=LINE('',#719,#170);
#127=LINE('',#722,#171);
#128=LINE('',#724,#172);
#129=LINE('',#725,#173);
#130=LINE('',#727,#174);
#131=LINE('',#729,#175);
#132=LINE('',#731,#176);
#133=LINE('',#732,#177);
#134=LINE('',#736,#178);
#135=LINE('',#739,#179);
#136=LINE('',#743,#180);
#137=LINE('',#747,#181);
#138=LINE('',#748,#182);
#139=LINE('',#751,#183);
#140=LINE('',#757,#184);
#141=LINE('',#759,#185);
#142=LINE('',#762,#186);
#143=VECTOR('',#511,10.);
#144=VECTOR('',#512,10.);
#145=VECTOR('',#513,10.);
#146=VECTOR('',#514,10.);
#147=VECTOR('',#517,10.);
#148=VECTOR('',#518,10.);
#149=VECTOR('',#519,10.);
#150=VECTOR('',#520,10.);
#151=VECTOR('',#521,10.);
#152=VECTOR('',#522,10.);
#153=VECTOR('',#523,10.);
#154=VECTOR('',#526,10.);
#155=VECTOR('',#527,10.);
#156=VECTOR('',#528,10.);
#157=VECTOR('',#531,10.);
#158=VECTOR('',#532,10.);
#159=VECTOR('',#535,10.);
#160=VECTOR('',#536,10.);
#161=VECTOR('',#537,10.);
#162=VECTOR('',#538,10.);
#163=VECTOR('',#539,10.);
#164=VECTOR('',#540,10.);
#165=VECTOR('',#545,1.5);
#166=VECTOR('',#554,1.5);
#167=VECTOR('',#563,1.5);
#168=VECTOR('',#572,1.5);
#169=VECTOR('',#581,10.);
#170=VECTOR('',#584,10.);
#171=VECTOR('',#587,10.);
#172=VECTOR('',#588,10.);
#173=VECTOR('',#589,10.);
#174=VECTOR('',#592,10.);
#175=VECTOR('',#593,10.);
#176=VECTOR('',#594,10.);
#177=VECTOR('',#595,10.);
#178=VECTOR('',#598,10.);
#179=VECTOR('',#601,10.);
#180=VECTOR('',#606,10.);
#181=VECTOR('',#611,10.);
#182=VECTOR('',#612,10.);
#183=VECTOR('',#615,10.);
#184=VECTOR('',#626,10.);
#185=VECTOR('',#629,10.);
#186=VECTOR('',#634,10.);
#187=VERTEX_POINT('',#639);
#188=VERTEX_POINT('',#640);
#189=VERTEX_POINT('',#642);
#190=VERTEX_POINT('',#644);
#191=VERTEX_POINT('',#648);
#192=VERTEX_POINT('',#650);
#193=VERTEX_POINT('',#652);
#194=VERTEX_POINT('',#654);
#195=VERTEX_POINT('',#656);
#196=VERTEX_POINT('',#658);
#197=VERTEX_POINT('',#662);
#198=VERTEX_POINT('',#664);
#199=VERTEX_POINT('',#668);
#200=VERTEX_POINT('',#672);
#201=VERTEX_POINT('',#674);
#202=VERTEX_POINT('',#676);
#203=VERTEX_POINT('',#678);
#204=VERTEX_POINT('',#680);
#205=VERTEX_POINT('',#684);
#206=VERTEX_POINT('',#686);
#207=VERTEX_POINT('',#691);
#208=VERTEX_POINT('',#693);
#209=VERTEX_POINT('',#698);
#210=VERTEX_POINT('',#700);
#211=VERTEX_POINT('',#705);
#212=VERTEX_POINT('',#707);
#213=VERTEX_POINT('',#712);
#214=VERTEX_POINT('',#713);
#215=VERTEX_POINT('',#715);
#216=VERTEX_POINT('',#717);
#217=VERTEX_POINT('',#721);
#218=VERTEX_POINT('',#723);
#219=VERTEX_POINT('',#728);
#220=VERTEX_POINT('',#730);
#221=VERTEX_POINT('',#733);
#222=VERTEX_POINT('',#735);
#223=VERTEX_POINT('',#738);
#224=VERTEX_POINT('',#742);
#225=VERTEX_POINT('',#746);
#226=VERTEX_POINT('',#750);
#227=EDGE_CURVE('',#187,#188,#99,.T.);
#228=EDGE_CURVE('',#189,#187,#100,.T.);
#229=EDGE_CURVE('',#190,#189,#101,.T.);
#230=EDGE_CURVE('',#188,#190,#102,.T.);
#231=EDGE_CURVE('',#191,#190,#103,.T.);
#232=EDGE_CURVE('',#189,#192,#104,.T.);
#233=EDGE_CURVE('',#193,#192,#105,.T.);
#234=EDGE_CURVE('',#193,#194,#106,.T.);
#235=EDGE_CURVE('',#194,#195,#107,.T.);
#236=EDGE_CURVE('',#196,#195,#108,.T.);
#237=EDGE_CURVE('',#191,#196,#109,.T.);
#238=EDGE_CURVE('',#197,#194,#110,.T.);
#239=EDGE_CURVE('',#198,#197,#111,.T.);
#240=EDGE_CURVE('',#195,#198,#112,.T.);
#241=EDGE_CURVE('',#199,#187,#113,.T.);
#242=EDGE_CURVE('',#192,#199,#114,.T.);
#243=EDGE_CURVE('',#188,#200,#115,.T.);
#244=EDGE_CURVE('',#201,#200,#116,.T.);
#245=EDGE_CURVE('',#202,#201,#117,.T.);
#246=EDGE_CURVE('',#203,#202,#118,.T.);
#247=EDGE_CURVE('',#204,#203,#119,.T.);
#248=EDGE_CURVE('',#199,#204,#120,.T.);
#249=EDGE_CURVE('',#205,#205,#19,.T.);
#250=EDGE_CURVE('',#205,#206,#121,.T.);
#251=EDGE_CURVE('',#206,#206,#20,.T.);
#252=EDGE_CURVE('',#207,#207,#21,.T.);
#253=EDGE_CURVE('',#207,#208,#122,.T.);
#254=EDGE_CURVE('',#208,#208,#22,.T.);
#255=EDGE_CURVE('',#209,#209,#23,.T.);
#256=EDGE_CURVE('',#209,#210,#123,.T.);
#257=EDGE_CURVE('',#210,#210,#24,.T.);
#258=EDGE_CURVE('',#211,#211,#25,.T.);
#259=EDGE_CURVE('',#211,#212,#124,.T.);
#260=EDGE_CURVE('',#212,#212,#26,.T.);
#261=EDGE_CURVE('',#213,#214,#27,.T.);
#262=EDGE_CURVE('',#214,#215,#125,.T.);
#263=EDGE_CURVE('',#215,#216,#28,.T.);
#264=EDGE_CURVE('',#216,#213,#126,.T.);
#265=EDGE_CURVE('',#217,#214,#127,.T.);
#266=EDGE_CURVE('',#218,#217,#128,.T.);
#267=EDGE_CURVE('',#215,#218,#129,.T.);
#268=EDGE_CURVE('',#200,#191,#130,.T.);
#269=EDGE_CURVE('',#196,#219,#131,.T.);
#270=EDGE_CURVE('',#219,#220,#132,.T.);
#271=EDGE_CURVE('',#220,#193,#133,.T.);
#272=EDGE_CURVE('',#221,#204,#29,.T.);
#273=EDGE_CURVE('',#221,#222,#134,.T.);
#274=EDGE_CURVE('',#217,#222,#30,.T.);
#275=EDGE_CURVE('',#213,#223,#135,.T.);
#276=EDGE_CURVE('',#201,#223,#31,.T.);
#277=EDGE_CURVE('',#222,#224,#136,.T.);
#278=EDGE_CURVE('',#224,#218,#32,.T.);
#279=EDGE_CURVE('',#225,#221,#137,.T.);
#280=EDGE_CURVE('',#224,#225,#138,.T.);
#281=EDGE_CURVE('',#223,#226,#139,.T.);
#282=EDGE_CURVE('',#226,#202,#33,.T.);
#283=EDGE_CURVE('',#203,#225,#34,.T.);
#284=EDGE_CURVE('',#198,#219,#140,.T.);
#285=EDGE_CURVE('',#197,#220,#141,.T.);
#286=EDGE_CURVE('',#216,#226,#142,.T.);
#287=ORIENTED_EDGE('',*,*,#227,.F.);
#288=ORIENTED_EDGE('',*,*,#228,.F.);
#289=ORIENTED_EDGE('',*,*,#229,.F.);
#290=ORIENTED_EDGE('',*,*,#230,.F.);
#291=ORIENTED_EDGE('',*,*,#231,.T.);
#292=ORIENTED_EDGE('',*,*,#229,.T.);
#293=ORIENTED_EDGE('',*,*,#232,.T.);
#294=ORIENTED_EDGE('',*,*,#233,.F.);
#295=ORIENTED_EDGE('',*,*,#234,.T.);
#296=ORIENTED_EDGE('',*,*,#235,.T.);
#297=ORIENTED_EDGE('',*,*,#236,.F.);
#298=ORIENTED_EDGE('',*,*,#237,.F.);
#299=ORIENTED_EDGE('',*,*,#235,.F.);
#300=ORIENTED_EDGE('',*,*,#238,.F.);
#301=ORIENTED_EDGE('',*,*,#239,.F.);
#302=ORIENTED_EDGE('',*,*,#240,.F.);
#303=ORIENTED_EDGE('',*,*,#241,.F.);
#304=ORIENTED_EDGE('',*,*,#242,.F.);
#305=ORIENTED_EDGE('',*,*,#232,.F.);
#306=ORIENTED_EDGE('',*,*,#228,.T.);
#307=ORIENTED_EDGE('',*,*,#243,.T.);
#308=ORIENTED_EDGE('',*,*,#244,.F.);
#309=ORIENTED_EDGE('',*,*,#245,.F.);
#310=ORIENTED_EDGE('',*,*,#246,.F.);
#311=ORIENTED_EDGE('',*,*,#247,.F.);
#312=ORIENTED_EDGE('',*,*,#248,.F.);
#313=ORIENTED_EDGE('',*,*,#241,.T.);
#314=ORIENTED_EDGE('',*,*,#227,.T.);
#315=ORIENTED_EDGE('',*,*,#249,.F.);
#316=ORIENTED_EDGE('',*,*,#250,.T.);
#317=ORIENTED_EDGE('',*,*,#251,.T.);
#318=ORIENTED_EDGE('',*,*,#250,.F.);
#319=ORIENTED_EDGE('',*,*,#251,.F.);
#320=ORIENTED_EDGE('',*,*,#252,.F.);
#321=ORIENTED_EDGE('',*,*,#253,.T.);
#322=ORIENTED_EDGE('',*,*,#254,.T.);
#323=ORIENTED_EDGE('',*,*,#253,.F.);
#324=ORIENTED_EDGE('',*,*,#254,.F.);
#325=ORIENTED_EDGE('',*,*,#255,.F.);
#326=ORIENTED_EDGE('',*,*,#256,.T.);
#327=ORIENTED_EDGE('',*,*,#257,.T.);
#328=ORIENTED_EDGE('',*,*,#256,.F.);
#329=ORIENTED_EDGE('',*,*,#257,.F.);
#330=ORIENTED_EDGE('',*,*,#258,.F.);
#331=ORIENTED_EDGE('',*,*,#259,.T.);
#332=ORIENTED_EDGE('',*,*,#260,.T.);
#333=ORIENTED_EDGE('',*,*,#259,.F.);
#334=ORIENTED_EDGE('',*,*,#260,.F.);
#335=ORIENTED_EDGE('',*,*,#261,.T.);
#336=ORIENTED_EDGE('',*,*,#262,.T.);
#337=ORIENTED_EDGE('',*,*,#263,.T.);
#338=ORIENTED_EDGE('',*,*,#264,.T.);
#339=ORIENTED_EDGE('',*,*,#262,.F.);
#340=ORIENTED_EDGE('',*,*,#265,.F.);
#341=ORIENTED_EDGE('',*,*,#266,.F.);
#342=ORIENTED_EDGE('',*,*,#267,.F.);
#343=ORIENTED_EDGE('',*,*,#268,.T.);
#344=ORIENTED_EDGE('',*,*,#237,.T.);
#345=ORIENTED_EDGE('',*,*,#269,.T.);
#346=ORIENTED_EDGE('',*,*,#270,.T.);
#347=ORIENTED_EDGE('',*,*,#271,.T.);
#348=ORIENTED_EDGE('',*,*,#233,.T.);
#349=ORIENTED_EDGE('',*,*,#242,.T.);
#350=ORIENTED_EDGE('',*,*,#248,.T.);
#351=ORIENTED_EDGE('',*,*,#272,.F.);
#352=ORIENTED_EDGE('',*,*,#273,.T.);
#353=ORIENTED_EDGE('',*,*,#274,.F.);
#354=ORIENTED_EDGE('',*,*,#265,.T.);
#355=ORIENTED_EDGE('',*,*,#261,.F.);
#356=ORIENTED_EDGE('',*,*,#275,.T.);
#357=ORIENTED_EDGE('',*,*,#276,.F.);
#358=ORIENTED_EDGE('',*,*,#244,.T.);
#359=ORIENTED_EDGE('',*,*,#249,.T.);
#360=ORIENTED_EDGE('',*,*,#252,.T.);
#361=ORIENTED_EDGE('',*,*,#255,.T.);
#362=ORIENTED_EDGE('',*,*,#258,.T.);
#363=ORIENTED_EDGE('',*,*,#274,.T.);
#364=ORIENTED_EDGE('',*,*,#277,.T.);
#365=ORIENTED_EDGE('',*,*,#278,.T.);
#366=ORIENTED_EDGE('',*,*,#266,.T.);
#367=ORIENTED_EDGE('',*,*,#277,.F.);
#368=ORIENTED_EDGE('',*,*,#273,.F.);
#369=ORIENTED_EDGE('',*,*,#279,.F.);
#370=ORIENTED_EDGE('',*,*,#280,.F.);
#371=ORIENTED_EDGE('',*,*,#276,.T.);
#372=ORIENTED_EDGE('',*,*,#281,.T.);
#373=ORIENTED_EDGE('',*,*,#282,.T.);
#374=ORIENTED_EDGE('',*,*,#245,.T.);
#375=ORIENTED_EDGE('',*,*,#272,.T.);
#376=ORIENTED_EDGE('',*,*,#247,.T.);
#377=ORIENTED_EDGE('',*,*,#283,.T.);
#378=ORIENTED_EDGE('',*,*,#279,.T.);
#379=ORIENTED_EDGE('',*,*,#231,.F.);
#380=ORIENTED_EDGE('',*,*,#268,.F.);
#381=ORIENTED_EDGE('',*,*,#243,.F.);
#382=ORIENTED_EDGE('',*,*,#230,.T.);
#383=ORIENTED_EDGE('',*,*,#284,.T.);
#384=ORIENTED_EDGE('',*,*,#269,.F.);
#385=ORIENTED_EDGE('',*,*,#236,.T.);
#386=ORIENTED_EDGE('',*,*,#240,.T.);
#387=ORIENTED_EDGE('',*,*,#234,.F.);
#388=ORIENTED_EDGE('',*,*,#271,.F.);
#389=ORIENTED_EDGE('',*,*,#285,.F.);
#390=ORIENTED_EDGE('',*,*,#238,.T.);
#391=ORIENTED_EDGE('',*,*,#285,.T.);
#392=ORIENTED_EDGE('',*,*,#270,.F.);
#393=ORIENTED_EDGE('',*,*,#284,.F.);
#394=ORIENTED_EDGE('',*,*,#239,.T.);
#395=ORIENTED_EDGE('',*,*,#264,.F.);
#396=ORIENTED_EDGE('',*,*,#286,.T.);
#397=ORIENTED_EDGE('',*,*,#281,.F.);
#398=ORIENTED_EDGE('',*,*,#275,.F.);
#399=ORIENTED_EDGE('',*,*,#263,.F.);
#400=ORIENTED_EDGE('',*,*,#267,.T.);
#401=ORIENTED_EDGE('',*,*,#278,.F.);
#402=ORIENTED_EDGE('',*,*,#280,.T.);
#403=ORIENTED_EDGE('',*,*,#283,.F.);
#404=ORIENTED_EDGE('',*,*,#246,.T.);
#405=ORIENTED_EDGE('',*,*,#282,.F.);
#406=ORIENTED_EDGE('',*,*,#286,.F.);
#407=PLANE('',#465);
#408=PLANE('',#466);
#409=PLANE('',#467);
#410=PLANE('',#468);
#411=PLANE('',#469);
#412=PLANE('',#473);
#413=PLANE('',#477);
#414=PLANE('',#481);
#415=PLANE('',#485);
#416=PLANE('',#489);
#417=PLANE('',#490);
#418=PLANE('',#496);
#419=PLANE('',#501);
#420=PLANE('',#502);
#421=PLANE('',#503);
#422=PLANE('',#504);
#423=PLANE('',#505);
#424=PLANE('',#506);
#425=ADVANCED_FACE('',(#43),#407,.F.);
#426=ADVANCED_FACE('',(#44),#408,.T.);
#427=ADVANCED_FACE('',(#45),#409,.F.);
#428=ADVANCED_FACE('',(#46),#410,.F.);
#429=ADVANCED_FACE('',(#47),#411,.T.);
#430=ADVANCED_FACE('',(#48),#35,.F.);
#431=ADVANCED_FACE('',(#49),#412,.T.);
#432=ADVANCED_FACE('',(#50),#36,.F.);
#433=ADVANCED_FACE('',(#51),#413,.T.);
#434=ADVANCED_FACE('',(#52),#37,.F.);
#435=ADVANCED_FACE('',(#53),#414,.T.);
#436=ADVANCED_FACE('',(#54),#38,.F.);
#437=ADVANCED_FACE('',(#55),#415,.T.);
#438=ADVANCED_FACE('',(#56),#39,.T.);
#439=ADVANCED_FACE('',(#57),#416,.T.);
#440=ADVANCED_FACE('',(#58,#15,#16,#17,#18),#417,.T.);
#441=ADVANCED_FACE('',(#59),#40,.T.);
#442=ADVANCED_FACE('',(#60),#418,.T.);
#443=ADVANCED_FACE('',(#61),#41,.T.);
#444=ADVANCED_FACE('',(#62),#42,.T.);
#445=ADVANCED_FACE('',(#63),#419,.F.);
#446=ADVANCED_FACE('',(#64),#420,.T.);
#447=ADVANCED_FACE('',(#65),#421,.T.);
#448=ADVANCED_FACE('',(#66),#422,.T.);
#449=ADVANCED_FACE('',(#67),#423,.T.);
#450=ADVANCED_FACE('',(#68),#424,.F.);
#451=CLOSED_SHELL('',(#425,#426,#427,#428,#429,#430,#431,#432,#433,#434,
#435,#436,#437,#438,#439,#440,#441,#442,#443,#444,#445,#446,#447,#448,#449,
#450));
#452=DERIVED_UNIT_ELEMENT(#454,1.);
#453=DERIVED_UNIT_ELEMENT(#769,-3.);
#454=(
MASS_UNIT()
NAMED_UNIT(*)
SI_UNIT(.KILO.,.GRAM.)
);
#455=DERIVED_UNIT((#452,#453));
#456=MEASURE_REPRESENTATION_ITEM('density measure',
POSITIVE_RATIO_MEASURE(7850.),#455);
#457=PROPERTY_DEFINITION_REPRESENTATION(#462,#459);
#458=PROPERTY_DEFINITION_REPRESENTATION(#463,#460);
#459=REPRESENTATION('material name',(#461),#766);
#460=REPRESENTATION('density',(#456),#766);
#461=DESCRIPTIVE_REPRESENTATION_ITEM('Steel','Steel');
#462=PROPERTY_DEFINITION('material property','material name',#776);
#463=PROPERTY_DEFINITION('material property','density of part',#776);
#464=AXIS2_PLACEMENT_3D('',#637,#507,#508);
#465=AXIS2_PLACEMENT_3D('',#638,#509,#510);
#466=AXIS2_PLACEMENT_3D('',#647,#515,#516);
#467=AXIS2_PLACEMENT_3D('',#661,#524,#525);
#468=AXIS2_PLACEMENT_3D('',#667,#529,#530);
#469=AXIS2_PLACEMENT_3D('',#671,#533,#534);
#470=AXIS2_PLACEMENT_3D('',#683,#541,#542);
#471=AXIS2_PLACEMENT_3D('',#685,#543,#544);
#472=AXIS2_PLACEMENT_3D('',#688,#546,#547);
#473=AXIS2_PLACEMENT_3D('',#689,#548,#549);
#474=AXIS2_PLACEMENT_3D('',#690,#550,#551);
#475=AXIS2_PLACEMENT_3D('',#692,#552,#553);
#476=AXIS2_PLACEMENT_3D('',#695,#555,#556);
#477=AXIS2_PLACEMENT_3D('',#696,#557,#558);
#478=AXIS2_PLACEMENT_3D('',#697,#559,#560);
#479=AXIS2_PLACEMENT_3D('',#699,#561,#562);
#480=AXIS2_PLACEMENT_3D('',#702,#564,#565);
#481=AXIS2_PLACEMENT_3D('',#703,#566,#567);
#482=AXIS2_PLACEMENT_3D('',#704,#568,#569);
#483=AXIS2_PLACEMENT_3D('',#706,#570,#571);
#484=AXIS2_PLACEMENT_3D('',#709,#573,#574);
#485=AXIS2_PLACEMENT_3D('',#710,#575,#576);
#486=AXIS2_PLACEMENT_3D('',#711,#577,#578);
#487=AXIS2_PLACEMENT_3D('',#714,#579,#580);
#488=AXIS2_PLACEMENT_3D('',#718,#582,#583);
#489=AXIS2_PLACEMENT_3D('',#720,#585,#586);
#490=AXIS2_PLACEMENT_3D('',#726,#590,#591);
#491=AXIS2_PLACEMENT_3D('',#734,#596,#597);
#492=AXIS2_PLACEMENT_3D('',#737,#599,#600);
#493=AXIS2_PLACEMENT_3D('',#740,#602,#603);
#494=AXIS2_PLACEMENT_3D('',#741,#604,#605);
#495=AXIS2_PLACEMENT_3D('',#744,#607,#608);
#496=AXIS2_PLACEMENT_3D('',#745,#609,#610);
#497=AXIS2_PLACEMENT_3D('',#749,#613,#614);
#498=AXIS2_PLACEMENT_3D('',#752,#616,#617);
#499=AXIS2_PLACEMENT_3D('',#753,#618,#619);
#500=AXIS2_PLACEMENT_3D('',#754,#620,#621);
#501=AXIS2_PLACEMENT_3D('',#755,#622,#623);
#502=AXIS2_PLACEMENT_3D('',#756,#624,#625);
#503=AXIS2_PLACEMENT_3D('',#758,#627,#628);
#504=AXIS2_PLACEMENT_3D('',#760,#630,#631);
#505=AXIS2_PLACEMENT_3D('',#761,#632,#633);
#506=AXIS2_PLACEMENT_3D('',#763,#635,#636);
#507=DIRECTION('axis',(0.,0.,1.));
#508=DIRECTION('refdir',(1.,0.,0.));
#509=DIRECTION('center_axis',(0.,0.,-1.));
#510=DIRECTION('ref_axis',(-1.,0.,0.));
#511=DIRECTION('',(-1.,0.,0.));
#512=DIRECTION('',(0.,-1.,0.));
#513=DIRECTION('',(1.,0.,0.));
#514=DIRECTION('',(0.,1.,0.));
#515=DIRECTION('center_axis',(0.,1.,0.));
#516=DIRECTION('ref_axis',(-1.,0.,0.));
#517=DIRECTION('',(0.,0.,-1.));
#518=DIRECTION('',(0.,0.,1.));
#519=DIRECTION('',(-1.,0.,0.));
#520=DIRECTION('',(0.,0.,-1.));
#521=DIRECTION('',(-1.,0.,0.));
#522=DIRECTION('',(0.,0.,-1.));
#523=DIRECTION('',(-1.,0.,0.));
#524=DIRECTION('center_axis',(0.,0.,-1.));
#525=DIRECTION('ref_axis',(-1.,0.,0.));
#526=DIRECTION('',(0.,-1.,0.));
#527=DIRECTION('',(1.,0.,0.));
#528=DIRECTION('',(0.,1.,0.));
#529=DIRECTION('center_axis',(1.,0.,0.));
#530=DIRECTION('ref_axis',(0.,0.,-1.));
#531=DIRECTION('',(0.,0.,-1.));
#532=DIRECTION('',(0.,-1.,0.));
#533=DIRECTION('center_axis',(0.,-1.,0.));
#534=DIRECTION('ref_axis',(0.,0.,-1.));
#535=DIRECTION('',(0.,0.,1.));
#536=DIRECTION('',(1.,0.,0.));
#537=DIRECTION('',(0.,0.,1.));
#538=DIRECTION('',(-1.,0.,0.));
#539=DIRECTION('',(0.,0.,-1.));
#540=DIRECTION('',(1.,0.,0.));
#541=DIRECTION('center_axis',(0.,0.,-1.));
#542=DIRECTION('ref_axis',(-1.,0.,0.));
#543=DIRECTION('center_axis',(0.,0.,-1.));
#544=DIRECTION('ref_axis',(-1.,0.,0.));
#545=DIRECTION('',(0.,0.,-1.));
#546=DIRECTION('center_axis',(0.,0.,-1.));
#547=DIRECTION('ref_axis',(-1.,0.,0.));
#548=DIRECTION('center_axis',(0.,0.,1.));
#549=DIRECTION('ref_axis',(-1.,0.,0.));
#550=DIRECTION('center_axis',(0.,0.,-1.));
#551=DIRECTION('ref_axis',(-1.,0.,0.));
#552=DIRECTION('center_axis',(0.,0.,-1.));
#553=DIRECTION('ref_axis',(-1.,0.,0.));
#554=DIRECTION('',(0.,0.,-1.));
#555=DIRECTION('center_axis',(0.,0.,-1.));
#556=DIRECTION('ref_axis',(-1.,0.,0.));
#557=DIRECTION('center_axis',(0.,0.,1.));
#558=DIRECTION('ref_axis',(-1.,0.,0.));
#559=DIRECTION('center_axis',(0.,0.,-1.));
#560=DIRECTION('ref_axis',(-1.,0.,0.));
#561=DIRECTION('center_axis',(0.,0.,-1.));
#562=DIRECTION('ref_axis',(-1.,0.,0.));
#563=DIRECTION('',(0.,0.,-1.));
#564=DIRECTION('center_axis',(0.,0.,-1.));
#565=DIRECTION('ref_axis',(-1.,0.,0.));
#566=DIRECTION('center_axis',(0.,0.,1.));
#567=DIRECTION('ref_axis',(-1.,0.,0.));
#568=DIRECTION('center_axis',(0.,0.,-1.));
#569=DIRECTION('ref_axis',(-1.,0.,0.));
#570=DIRECTION('center_axis',(0.,0.,-1.));
#571=DIRECTION('ref_axis',(-1.,0.,0.));
#572=DIRECTION('',(0.,0.,-1.));
#573=DIRECTION('center_axis',(0.,0.,-1.));
#574=DIRECTION('ref_axis',(-1.,0.,0.));
#575=DIRECTION('center_axis',(0.,0.,1.));
#576=DIRECTION('ref_axis',(-1.,0.,0.));
#577=DIRECTION('center_axis',(0.,0.,1.));
#578=DIRECTION('ref_axis',(-0.707106781186547,0.707106781186547,0.));
#579=DIRECTION('center_axis',(0.,0.,-1.));
#580=DIRECTION('ref_axis',(-0.707106781186547,0.707106781186547,0.));
#581=DIRECTION('',(0.,0.,-1.));
#582=DIRECTION('center_axis',(0.,0.,1.));
#583=DIRECTION('ref_axis',(-0.707106781186547,0.707106781186547,0.));
#584=DIRECTION('',(0.,0.,1.));
#585=DIRECTION('center_axis',(0.,1.,0.));
#586=DIRECTION('ref_axis',(0.,0.,1.));
#587=DIRECTION('',(-1.,0.,0.));
#588=DIRECTION('',(0.,0.,1.));
#589=DIRECTION('',(1.,0.,0.));
#590=DIRECTION('center_axis',(0.,0.,1.));
#591=DIRECTION('ref_axis',(1.,0.,0.));
#592=DIRECTION('',(0.,1.,0.));
#593=DIRECTION('',(0.,1.,0.));
#594=DIRECTION('',(1.,0.,0.));
#595=DIRECTION('',(0.,-1.,0.));
#596=DIRECTION('center_axis',(0.,0.,-1.));
#597=DIRECTION('ref_axis',(0.707106781186547,-0.707106781186547,0.));
#598=DIRECTION('',(0.,1.,0.));
#599=DIRECTION('center_axis',(0.,0.,-1.));
#600=DIRECTION('ref_axis',(0.707106781186547,0.707106781186547,0.));
#601=DIRECTION('',(0.,-1.,0.));
#602=DIRECTION('center_axis',(0.,0.,-1.));
#603=DIRECTION('ref_axis',(-0.707106781186547,-0.707106781186547,0.));
#604=DIRECTION('center_axis',(0.,0.,1.));
#605=DIRECTION('ref_axis',(0.707106781186547,0.707106781186547,0.));
#606=DIRECTION('',(0.,0.,-1.));
#607=DIRECTION('center_axis',(0.,0.,1.));
#608=DIRECTION('ref_axis',(0.707106781186547,0.707106781186547,0.));
#609=DIRECTION('center_axis',(1.,0.,0.));
#610=DIRECTION('ref_axis',(0.,0.,-1.));
#611=DIRECTION('',(0.,0.,1.));
#612=DIRECTION('',(0.,-1.,0.));
#613=DIRECTION('center_axis',(0.,0.,1.));
#614=DIRECTION('ref_axis',(-0.707106781186547,-0.707106781186547,0.));
#615=DIRECTION('',(0.,0.,-1.));
#616=DIRECTION('center_axis',(0.,0.,1.));
#617=DIRECTION('ref_axis',(-0.707106781186547,-0.707106781186547,0.));
#618=DIRECTION('center_axis',(0.,0.,1.));
#619=DIRECTION('ref_axis',(0.707106781186547,-0.707106781186547,0.));
#620=DIRECTION('center_axis',(0.,0.,1.));
#621=DIRECTION('ref_axis',(0.707106781186547,-0.707106781186547,0.));
#622=DIRECTION('center_axis',(-1.,0.,0.));
#623=DIRECTION('ref_axis',(0.,0.,1.));
#624=DIRECTION('center_axis',(1.,0.,0.));
#625=DIRECTION('ref_axis',(0.,1.,0.));
#626=DIRECTION('',(0.,0.,1.));
#627=DIRECTION('center_axis',(-1.,0.,0.));
#628=DIRECTION('ref_axis',(0.,-1.,0.));
#629=DIRECTION('',(0.,0.,1.));
#630=DIRECTION('center_axis',(0.,-1.,0.));
#631=DIRECTION('ref_axis',(1.,0.,0.));
#632=DIRECTION('center_axis',(-1.,0.,0.));
#633=DIRECTION('ref_axis',(0.,0.,1.));
#634=DIRECTION('',(0.,-1.,0.));
#635=DIRECTION('center_axis',(0.,0.,1.));
#636=DIRECTION('ref_axis',(1.,0.,0.));
#637=CARTESIAN_POINT('',(0.,0.,0.));
#638=CARTESIAN_POINT('Origin',(-4.00000007450581,-38.5,13.));
#639=CARTESIAN_POINT('',(2.,-43.5,13.));
#640=CARTESIAN_POINT('',(-10.0000001490116,-43.5,13.));
#641=CARTESIAN_POINT('',(-17.0000000372529,-43.5,13.));
#642=CARTESIAN_POINT('',(2.,-33.5,13.));
#643=CARTESIAN_POINT('',(2.,-41.,13.));
#644=CARTESIAN_POINT('',(-10.0000001490116,-33.5,13.));
#645=CARTESIAN_POINT('',(13.0000001862645,-33.5000004991889,13.));
#646=CARTESIAN_POINT('',(-10.0000001490116,-41.,13.));
#647=CARTESIAN_POINT('Origin',(30.0000004470348,-33.5000004991889,10.));
#648=CARTESIAN_POINT('',(-10.0000001490116,-33.5,25.0000002980232));
#649=CARTESIAN_POINT('',(-10.0000001490116,-33.5000004991889,13.));
#650=CARTESIAN_POINT('',(2.,-33.5,25.0000002980232));
#651=CARTESIAN_POINT('',(2.,-33.5000004991889,15.0000001490116));
#652=CARTESIAN_POINT('',(30.0000004470348,-33.5000004991889,25.));
#653=CARTESIAN_POINT('',(-15.0000002235174,-33.5000004991889,25.));
#654=CARTESIAN_POINT('',(30.0000004470348,-33.5000004991889,10.));
#655=CARTESIAN_POINT('',(30.0000004470348,-33.5000004991889,11.));
#656=CARTESIAN_POINT('',(-30.0000004470348,-33.5000004991889,10.));
#657=CARTESIAN_POINT('',(30.0000004470348,-33.5000004991889,10.));
#658=CARTESIAN_POINT('',(-30.0000004470348,-33.5000004991889,25.));
#659=CARTESIAN_POINT('',(-30.0000004470348,-33.5000004991889,11.));
#660=CARTESIAN_POINT('',(-15.0000002235174,-33.5000004991889,25.));
#661=CARTESIAN_POINT('Origin',(0.,0.,10.));
#662=CARTESIAN_POINT('',(30.0000004470348,33.5000004991889,10.));
#663=CARTESIAN_POINT('',(30.0000004470348,33.5000004991889,10.));
#664=CARTESIAN_POINT('',(-30.0000004470348,33.5000004991889,10.));
#665=CARTESIAN_POINT('',(-30.0000004470348,33.5000004991889,10.));
#666=CARTESIAN_POINT('',(-30.0000004470348,-33.5000004991889,10.));
#667=CARTESIAN_POINT('Origin',(2.,-43.5,20.0000002980232));
#668=CARTESIAN_POINT('',(2.,-43.5,25.0000002980232));
#669=CARTESIAN_POINT('',(2.,-43.5,8.));
#670=CARTESIAN_POINT('',(2.,-21.75,25.));
#671=CARTESIAN_POINT('Origin',(-30.,-43.5,0.));
#672=CARTESIAN_POINT('',(-10.0000001490116,-43.5,25.0000002980232));
#673=CARTESIAN_POINT('',(-10.0000001490116,-43.5,5.00000007450581));
#674=CARTESIAN_POINT('',(-30.,-43.5,25.));
#675=CARTESIAN_POINT('',(-30.,-43.5,25.));
#676=CARTESIAN_POINT('',(-30.,-43.5,0.));
#677=CARTESIAN_POINT('',(-30.,-43.5,0.));
#678=CARTESIAN_POINT('',(30.,-43.5,0.));
#679=CARTESIAN_POINT('',(-30.,-43.5,0.));
#680=CARTESIAN_POINT('',(30.,-43.5,25.));
#681=CARTESIAN_POINT('',(30.,-43.5,0.));
#682=CARTESIAN_POINT('',(-30.,-43.5,25.));
#683=CARTESIAN_POINT('Origin',(33.0000004917383,-37.000000551343,25.));
#684=CARTESIAN_POINT('',(34.5000004917383,-37.000000551343,25.));
#685=CARTESIAN_POINT('Origin',(33.0000004917383,-37.000000551343,25.));
#686=CARTESIAN_POINT('',(34.5000004917383,-37.000000551343,20.));
#687=CARTESIAN_POINT('',(34.5000004917383,-37.000000551343,25.));
#688=CARTESIAN_POINT('Origin',(33.0000004917383,-37.000000551343,20.));
#689=CARTESIAN_POINT('Origin',(33.0000004917383,-37.000000551343,20.));
#690=CARTESIAN_POINT('Origin',(-33.0000004917383,-37.000000551343,25.));
#691=CARTESIAN_POINT('',(-31.5000004917383,-37.000000551343,25.));
#692=CARTESIAN_POINT('Origin',(-33.0000004917383,-37.000000551343,25.));
#693=CARTESIAN_POINT('',(-31.5000004917383,-37.000000551343,20.));
#694=CARTESIAN_POINT('',(-31.5000004917383,-37.000000551343,25.));
#695=CARTESIAN_POINT('Origin',(-33.0000004917383,-37.000000551343,20.));
#696=CARTESIAN_POINT('Origin',(-33.0000004917383,-37.000000551343,20.));
#697=CARTESIAN_POINT('Origin',(-33.0000004917383,37.000000551343,25.));
#698=CARTESIAN_POINT('',(-31.5000004917383,37.000000551343,25.));
#699=CARTESIAN_POINT('Origin',(-33.0000004917383,37.000000551343,25.));
#700=CARTESIAN_POINT('',(-31.5000004917383,37.000000551343,20.));
#701=CARTESIAN_POINT('',(-31.5000004917383,37.000000551343,25.));
#702=CARTESIAN_POINT('Origin',(-33.0000004917383,37.000000551343,20.));
#703=CARTESIAN_POINT('Origin',(-33.0000004917383,37.000000551343,20.));
#704=CARTESIAN_POINT('Origin',(33.0000004917383,37.000000551343,25.));
#705=CARTESIAN_POINT('',(34.5000004917383,37.000000551343,25.));
#706=CARTESIAN_POINT('Origin',(33.0000004917383,37.000000551343,25.));
#707=CARTESIAN_POINT('',(34.5000004917383,37.000000551343,20.));
#708=CARTESIAN_POINT('',(34.5000004917383,37.000000551343,25.));
#709=CARTESIAN_POINT('Origin',(33.0000004917383,37.000000551343,20.));
#710=CARTESIAN_POINT('Origin',(33.0000004917383,37.000000551343,20.));
#711=CARTESIAN_POINT('Origin',(-30.,33.5,0.));
#712=CARTESIAN_POINT('',(-40.,33.5,25.));
#713=CARTESIAN_POINT('',(-30.,43.5,25.));
#714=CARTESIAN_POINT('Origin',(-30.,33.5,25.));
#715=CARTESIAN_POINT('',(-30.,43.5,0.));
#716=CARTESIAN_POINT('',(-30.,43.5,0.));
#717=CARTESIAN_POINT('',(-40.,33.5,0.));
#718=CARTESIAN_POINT('Origin',(-30.,33.5,0.));
#719=CARTESIAN_POINT('',(-40.,33.5,0.));
#720=CARTESIAN_POINT('Origin',(30.,43.5,0.));
#721=CARTESIAN_POINT('',(30.,43.5,25.));
#722=CARTESIAN_POINT('',(-30.,43.5,25.));
#723=CARTESIAN_POINT('',(30.,43.5,0.));
#724=CARTESIAN_POINT('',(30.,43.5,0.));
#725=CARTESIAN_POINT('',(30.,43.5,0.));
#726=CARTESIAN_POINT('Origin',(0.,0.,25.));
#727=CARTESIAN_POINT('',(-10.0000001490116,-16.75,25.));
#728=CARTESIAN_POINT('',(-30.0000004470348,33.5000004991889,25.));
#729=CARTESIAN_POINT('',(-30.0000004470348,16.7500002495944,25.));
#730=CARTESIAN_POINT('',(30.0000004470348,33.5000004991889,25.));
#731=CARTESIAN_POINT('',(15.0000002235174,33.5000004991889,25.));
#732=CARTESIAN_POINT('',(30.0000004470348,-16.7500002495944,25.));
#733=CARTESIAN_POINT('',(40.,-33.5,25.));
#734=CARTESIAN_POINT('Origin',(30.,-33.5,25.));
#735=CARTESIAN_POINT('',(40.,33.5,25.));
#736=CARTESIAN_POINT('',(40.,-33.5,25.));
#737=CARTESIAN_POINT('Origin',(30.,33.5,25.));
#738=CARTESIAN_POINT('',(-40.,-33.5,25.));
#739=CARTESIAN_POINT('',(-40.,33.5,25.));
#740=CARTESIAN_POINT('Origin',(-30.,-33.5,25.));
#741=CARTESIAN_POINT('Origin',(30.,33.5,0.));
#742=CARTESIAN_POINT('',(40.,33.5,0.));
#743=CARTESIAN_POINT('',(40.,33.5,0.));
#744=CARTESIAN_POINT('Origin',(30.,33.5,0.));
#745=CARTESIAN_POINT('Origin',(40.,-33.5,0.));
#746=CARTESIAN_POINT('',(40.,-33.5,0.));
#747=CARTESIAN_POINT('',(40.,-33.5,0.));
#748=CARTESIAN_POINT('',(40.,-33.5,0.));
#749=CARTESIAN_POINT('Origin',(-30.,-33.5,0.));
#750=CARTESIAN_POINT('',(-40.,-33.5,0.));
#751=CARTESIAN_POINT('',(-40.,-33.5,0.));
#752=CARTESIAN_POINT('Origin',(-30.,-33.5,0.));
#753=CARTESIAN_POINT('Origin',(30.,-33.5,0.));
#754=CARTESIAN_POINT('Origin',(30.,-33.5,0.));
#755=CARTESIAN_POINT('Origin',(-10.0000001490116,-43.5,10.0000001490116));
#756=CARTESIAN_POINT('Origin',(-30.0000004470348,-33.5000004991889,10.));
#757=CARTESIAN_POINT('',(-30.0000004470348,33.5000004991889,10.));
#758=CARTESIAN_POINT('Origin',(30.0000004470348,33.5000004991889,10.));
#759=CARTESIAN_POINT('',(30.0000004470348,33.5000004991889,10.));
#760=CARTESIAN_POINT('Origin',(-30.0000004470348,33.5000004991889,10.));
#761=CARTESIAN_POINT('Origin',(-40.,33.5,0.));
#762=CARTESIAN_POINT('',(-40.,33.5,0.));
#763=CARTESIAN_POINT('Origin',(0.,0.,0.));
#764=UNCERTAINTY_MEASURE_WITH_UNIT(LENGTH_MEASURE(0.01),#768,
'DISTANCE_ACCURACY_VALUE',
'Maximum model space distance between geometric entities at asserted c
onnectivities');
#765=UNCERTAINTY_MEASURE_WITH_UNIT(LENGTH_MEASURE(0.01),#768,
'DISTANCE_ACCURACY_VALUE',
'Maximum model space distance between geometric entities at asserted c
onnectivities');
#766=(
GEOMETRIC_REPRESENTATION_CONTEXT(3)
GLOBAL_UNCERTAINTY_ASSIGNED_CONTEXT((#764))
GLOBAL_UNIT_ASSIGNED_CONTEXT((#768,#770,#771))
REPRESENTATION_CONTEXT('','3D')
);
#767=(
GEOMETRIC_REPRESENTATION_CONTEXT(3)
GLOBAL_UNCERTAINTY_ASSIGNED_CONTEXT((#765))
GLOBAL_UNIT_ASSIGNED_CONTEXT((#768,#770,#771))
REPRESENTATION_CONTEXT('','3D')
);
#768=(
LENGTH_UNIT()
NAMED_UNIT(*)
SI_UNIT(.MILLI.,.METRE.)
);
#769=(
LENGTH_UNIT()
NAMED_UNIT(*)
SI_UNIT($,.METRE.)
);
#770=(
NAMED_UNIT(*)
PLANE_ANGLE_UNIT()
SI_UNIT($,.RADIAN.)
);
#771=(
NAMED_UNIT(*)
SI_UNIT($,.STERADIAN.)
SOLID_ANGLE_UNIT()
);
#772=SHAPE_DEFINITION_REPRESENTATION(#773,#774);
#773=PRODUCT_DEFINITION_SHAPE('',$,#776);
#774=SHAPE_REPRESENTATION('',(#464),#766);
#775=PRODUCT_DEFINITION_CONTEXT('part definition',#780,'design');
#776=PRODUCT_DEFINITION('2026-09-12-03-07-22-764','Mini_Pad_encloser',#777,
#775);
#777=PRODUCT_DEFINITION_FORMATION('',$,#782);
#778=PRODUCT_RELATED_PRODUCT_CATEGORY('Mini_Pad_encloser',
'Mini_Pad_encloser',(#782));
#779=APPLICATION_PROTOCOL_DEFINITION('international standard',
'automotive_design',2009,#780);
#780=APPLICATION_CONTEXT(
'Core Data for Automotive Mechanical Design Process');
#781=PRODUCT_CONTEXT('part definition',#780,'mechanical');
#782=PRODUCT('2026-09-12-03-07-22-764','Mini_Pad_encloser',$,(#781));
#783=PRESENTATION_STYLE_ASSIGNMENT((#785));
#784=PRESENTATION_STYLE_ASSIGNMENT((#786));
#785=SURFACE_STYLE_USAGE(.BOTH.,#787);
#786=SURFACE_STYLE_USAGE(.BOTH.,#788);
#787=SURFACE_SIDE_STYLE('',(#789));
#788=SURFACE_SIDE_STYLE('',(#790));
#789=SURFACE_STYLE_FILL_AREA(#791);
#790=SURFACE_STYLE_FILL_AREA(#792);
#791=FILL_AREA_STYLE('Steel - Satin',(#793));
#792=FILL_AREA_STYLE('Paint - Enamel Glossy (Yellow)',(#794));
#793=FILL_AREA_STYLE_COLOUR('Steel - Satin',#795);
#794=FILL_AREA_STYLE_COLOUR('Paint - Enamel Glossy (Yellow)',#796);
#795=COLOUR_RGB('Steel - Satin',0.627450980392157,0.627450980392157,0.627450980392157);
#796=COLOUR_RGB('Paint - Enamel Glossy (Yellow)',0.909803921568627,0.67843137254902,
0.137254901960784);
ENDSEC;
END-ISO-10303-21;
